<svg xmlns="http://www.w3.org/2000/svg" width="576" height="384"><path fill="#a49457" d="M529.293 244.937h2.626l-.362-8.083zm2.723 2.81h-3.58l-1.495 4.238h-2.969l6.504-18.735h3.845l.814 18.735h-2.943l-.176-4.239m-495.334-.876 2.228-13.62h3.05l-2.24 14.043c-.247 1.298.528 2.226 1.747 2.226 1.193 0 2.015-.794 2.257-2.2l2.24-14.07h3.101l-2.311 14.282c-.48 2.968-2.43 4.824-5.505 4.824-3.156 0-5.024-2.624-4.567-5.485m33.568-13.613-3.006 18.734H64.62l-2.978-12.4-1.98 12.4h-2.625l3.006-18.734h2.624l2.952 12.376 1.98-12.376h2.652m10.976 0h3.048l-3.004 18.734h-3.05l3.006-18.734m413.067 0h3.05l-3.004 18.734h-3.05l3.004-18.734m23.386 0-3.004 18.734h-2.625l-2.978-12.4-1.979 12.4h-2.625l3.004-18.734h2.625l2.952 12.376 1.981-12.376h2.65"/><path fill="#1a523d" d="M289.313 139.646c-2.502 18.704-2.656 37.393-2.379 55.959-10.008-16.752-15.12-35.422-13.874-55.17l-3.032.14c-.583.026-1.021-.337-1.096-.84l-5.837.288c-.595.03-1.012-.43-.899-.992l4.867-14.425c.108-.53.65-.938 1.204-.902l3.076.324c.22-.521.784-.901 1.372-.875l2.989.139c4.845-19.749 15.717-38.418 30.891-55.17-6.004 18.565-11.614 37.254-14.881 55.958l4.257 1.75 40.747-2.003c.603-.031 1.159-.43 1.263-1.006l.001-.01c2.563-14.763 5.81-31.234 8.948-45.869.159-.741 0-1.4-.479-1.977-3.84-4.685-7.65-9.417-11.426-14.196-.47-.589-1.136-.905-1.997-.948a55844.595 55844.595 0 0 0-70.133-3.369c-.796-.037-1.559.227-2.287.794a1330.694 1330.694 0 0 0-17.653 13.978c-.722.581-1.166 1.276-1.33 2.081a1232.603 1232.603 0 0 0-18.801 123.242c-.083.82.145 1.52.685 2.098 4.373 4.69 8.776 9.333 13.208 13.925.485.502 2.029.35 2.029.35h67.629s1.69-.374 2.272-.922c5.276-5 13.432-13.233 18.766-18.117.663-.603 1.035-2.698 1.119-3.453a1129.623 1129.623 0 0 1 4.398-34.85c.68-4.79 1.539-10.02 2.326-14.9.162-1.005-.63-1.916-1.68-1.933l-39.491-.684-4.772 1.585"/><path fill="#a49457" d="m103.33 233.257-6.479 18.734h-3.844l-.76-18.734h2.916l.514 13.938 4.604-13.938h3.048m13.568 2.827-.848 5.3h3.844l-.431 2.834h-3.872l-.782 4.93h4.984l-.431 2.834h-8.06l3.004-18.734h8.034l-.43 2.836h-5.012m20.833 0h-1.83l-.915 5.697h1.856c1.166 0 2.174-.741 2.37-1.961l.262-1.696c.24-1.404-.364-2.04-1.743-2.04zm4.79 2.014-.304 1.934c-.26 1.722-1.22 3.074-2.623 3.842l1.37 8.108h-2.916l-1.24-7.365h-2.28l-1.173 7.365h-3.05l3.005-18.734h4.72c3.02 0 4.974 2.014 4.49 4.85m8.117 8.692.083-.636h3.102l-.109.663c-.284 1.721.495 2.781 1.927 2.781 1.564 0 2.184-1.245 2.133-2.675-.125-3.603-5.208-4.107-5.361-8.48-.115-3.311 1.981-5.565 5.376-5.565 3.18 0 4.918 2.678 4.52 4.956l-.175 1.06h-3.05l.155-.928c.268-1.377-.296-2.358-1.648-2.358-1.537 0-2.16 1.193-2.113 2.517.11 3.18 5.199 3.843 5.36 8.48.124 3.55-1.947 5.75-5.473 5.75-3.288 0-5.177-2.492-4.727-5.565m22.706-13.533h3.05l-3.006 18.734h-3.049l3.005-18.734m21.36 2.827h-3.659l-2.521 15.898h-3.075l2.547-15.898h-3.633l.432-2.836h10.34l-.431 2.836m13.653 9.306-1.043 6.597h-3.05l1.064-6.782-2.222-11.977h3.102l1.218 8.293 3.82-8.293h3.261l-6.15 12.162m32.852 1.933 1.476-9.38c.246-1.35-.53-2.225-1.854-2.225s-2.147.768-2.39 2.172l-1.5 9.407c-.22 1.325.528 2.226 1.88 2.226 1.3 0 2.147-.794 2.388-2.2zm-7.306-.449 1.51-9.169c.48-2.968 2.456-4.823 5.611-4.823 3.263 0 5.155 2.598 4.699 5.486l-1.483 9.167c-.479 2.968-2.456 4.824-5.639 4.824-3.26 0-5.154-2.624-4.698-5.485m25.039-10.79-.933 5.909h4.11l-.46 2.808h-4.11l-1.153 7.18h-3.05l3.004-18.733h8.035l-.432 2.836h-5.01m37.559-2.827-3.006 18.734h-2.625l-2.978-12.4-1.98 12.4h-2.625l3.006-18.734h2.625l2.95 12.376 1.98-12.376h2.652m14.947 14.066 1.474-9.38c.246-1.35-.528-2.225-1.853-2.225-1.327 0-2.147.768-2.39 2.172l-1.502 9.407c-.217 1.325.53 2.226 1.881 2.226 1.299 0 2.146-.794 2.39-2.2zm-7.307-.449 1.508-9.169c.48-2.968 2.457-4.823 5.613-4.823 3.26 0 5.153 2.598 4.699 5.486l-1.483 9.167c-.481 2.968-2.457 4.824-5.638 4.824-3.263 0-5.158-2.624-4.699-5.485m26.866-10.79h-1.83l-.915 5.697h1.856c1.166 0 2.174-.741 2.37-1.961l.26-1.696c.243-1.404-.364-2.04-1.74-2.04zm4.788 2.014-.301 1.934c-.26 1.722-1.22 3.074-2.624 3.842l1.37 8.108h-2.917l-1.239-7.365h-2.28l-1.173 7.365h-3.05l3.005-18.734h4.72c3.021 0 4.974 2.014 4.489 4.85m19.198-2.014h-3.658l-2.52 15.898h-3.076l2.546-15.898h-3.632l.432-2.836h10.34l-.432 2.836m19.733-2.827-3.005 18.734h-3.05l1.242-7.763h-4.27l-1.24 7.763h-3.049l3.004-18.734h3.05l-1.307 8.136h4.27l1.306-8.136h3.049m20.026 13.586 1.512-9.142c.48-2.968 2.456-4.823 5.584-4.823 3.29 0 5.182 2.598 4.699 5.486l-.33 1.908h-3.05l.397-2.332c.243-1.351-.61-2.226-1.883-2.226-1.324 0-2.172.768-2.414 2.172l-1.475 9.407c-.22 1.325.528 2.226 1.88 2.226 1.3 0 2.147-.794 2.39-2.2l.366-2.384h3.076l-.413 2.596c-.482 2.89-2.456 4.824-5.611 4.824-3.288 0-5.208-2.57-4.728-5.512m23.653-1.906h2.625l-.361-8.083zm2.722 2.81h-3.58l-1.494 4.238h-2.97l6.505-18.735h3.845l.813 18.735H421.3l-.175-4.239m20.024-11.662h-1.83l-.914 5.697h1.856c1.167 0 2.175-.741 2.37-1.961l.26-1.696c.243-1.404-.363-2.04-1.742-2.04zm4.79 2.014-.305 1.934c-.257 1.722-1.217 3.074-2.622 3.842l1.369 8.108h-2.916l-1.239-7.365h-2.28l-1.174 7.365h-3.05l3.006-18.734h4.718c3.024 0 4.976 2.014 4.492 4.85m15.824 9.225 1.476-9.38c.244-1.35-.53-2.225-1.855-2.225-1.327 0-2.146.768-2.39 2.172l-1.502 9.407c-.217 1.325.53 2.226 1.883 2.226 1.298 0 2.145-.794 2.388-2.2zm-7.307-.449 1.51-9.169c.48-2.968 2.457-4.823 5.613-4.823 3.26 0 5.153 2.598 4.697 5.486l-1.483 9.167c-.48 2.968-2.457 4.824-5.638 4.824-3.263 0-5.156-2.624-4.699-5.485m27.946 2.276-.43 2.835h-8.062l3.006-18.735h3.049l-2.547 15.9h4.984"/><path fill="#1a523d" d="M67.236 317.11c-14.237 0-25.845-10.156-25.845-26.75 0-13.693 7.89-25.12 22.126-25.12 7.8 0 15.506 3.082 15.689 12.332h3.264l2.72-13.965c-4.806-.454-13.149-2.266-20.403-2.266-20.857 0-33.552 14.961-33.552 32.1 0 17.864 13.965 30.56 31.829 30.56 16.324 0 23.397-11.153 23.397-11.153l-1.36-2.087s-6.983 6.348-17.865 6.348m167.731-24.573h-7.254v-25.03l.997-.996h2.902c9.975 0 13.693 5.985 13.693 13.058 0 8.615-5.532 12.967-10.338 12.967zm-64.118 6.257 9.522-24.848c.454 1.634 1.36 4.263 1.995 6.167l6.892 18.68zm86.698 15.143-13.058-19.406v-1.36c4.534-2.539 11.607-8.07 11.607-16.142 0-7.708-6.166-14.598-22.307-14.598h-23.034v2.448c6.712 1.36 7.165 2.266 7.165 6.62v42.983c0 3.083-2.365 5.35-6.173 5.804-3.084-.455-4.626-1.633-6.62-6.892l-20.041-51.599-4.533.997-21.31 53.14c-.636 1.669-1.967 3.335-4.784 3.967l-7.752-.792s.453-2.177.453-4.897v-40.626c0-7.527 2.994-11.063 2.994-11.063l-.454-.362s-2.358.272-11.971.272h-6.891v2.448c6.53 1.36 6.53 2.267 6.53 6.62v17.5l-1 .998h-31.556v-16.413c0-7.527 2.993-11.153 2.993-11.153l-.454-.364s-2.358.364-11.97.364h-6.8v2.448c6.438 1.36 6.438 2.266 6.438 6.62v42.71c0 3.265-2.358 5.442-6.258 5.894v3.084l23.214-.544.363-2.72-7.98-.816s.454-2.178.454-4.897v-18.953l.996-.906h31.558v20.131c0 3.083-2.449 5.17-6.348 5.622v3.083l23.305-.272h16.072l.453-2.811-7.708-.996 5.804-15.145 1.27-.907h20.584l4.987 13.33c.998 2.722-1.177 3.446-3.717 3.537v3.264l19.714-.093v.041l23.397-.544.24-2.668-8.16-.815s.453-1.997.453-4.626v-16.957l.997-.998h5.442l10.79 16.14c3.9 5.713 5.441 9.976 5.441 9.976l.363.272h15.053l.362-3.084-.996-.09c-2.086-.181-3.809-.362-7.618-5.803m37.78 4.897h-12.29s.454-2.268.454-4.988v-40.263c0-7.527 2.994-11.154 2.994-11.154l-.455-.364s-2.539.364-11.97.364h-6.892v2.448c6.529 1.36 6.529 2.267 6.529 6.62v42.983c0 3.264-2.085 5.17-6.075 5.621v3.084s8.705-.272 13.965-.272h27.07l3.81-16.867H309.2c-4.534 9.704-6.257 12.787-13.874 12.787m50.239 1.179c-14.237 0-22.217-15.415-22.217-28.928 0-13.148 7.436-25.753 20.947-25.753 14.419 0 22.127 14.056 22.127 27.567 0 13.33-7.436 27.114-20.857 27.114zm.544-58.67c-22.036 0-33.642 16.049-33.642 32.19 0 15.96 11.425 30.47 31.103 30.47 21.038 0 33.825-16.685 33.825-33.462 0-15.688-11.153-29.198-31.286-29.198m40.681 1.088c-3.717 0-6.074-.544-6.074-.544l-2.81 15.686h3.263c3.536-9.25 6.257-11.062 12.333-11.062h6.485v47.699c0 3.264-2.357 5.44-6.257 5.893v3.084l24.302-.544.364-2.72-9.069-.816s.453-2.178.453-4.897v-46.702l1-.997h6.303c6.892 0 9.884 1.813 9.612 11.062h3.354l2.812-15.686s-2.812.544-6.529.544H386.79m55.946 0c-3.719 0-6.076-.544-6.076-.544l-2.81 15.686h3.263c3.536-9.25 6.257-11.062 12.333-11.062h6.485v47.699c0 3.264-2.357 5.44-6.257 5.893v3.084l24.303-.544.363-2.72-9.069-.816s.455-2.178.455-4.897v-46.702l.997-.997h6.304c6.892 0 9.884 1.813 9.612 11.062h3.356l2.81-15.686s-2.81.544-6.53.544h-39.54m92.558 45.43c-4.534 9.522-5.622 10.973-13.42 10.973H508.27s.453-2.358.453-5.08v-18.588l.998-.998h14.962v6.802h4.444v-16.594l-3.536.544-.727 5.258h-16.14v-22.67l.997-.997h11.154c7.254 0 10.248 1.722 9.793 11.062h3.264l2.812-15.506s-2.992.364-6.71.364h-38.269v2.448c6.712 1.36 7.165 2.266 7.165 6.62v42.983c0 3.264-2.357 5.169-6.257 5.62v3.085s8.886-.272 14.145-.272h28.385l3.354-15.053h-3.264"/></svg>